<svg xmlns="http://www.w3.org/2000/svg" width="1400" height="420" viewBox="0 0 1400 420" role="img" aria-label="Git Lockers README hero banner">
  <defs>
    <linearGradient id="bg" x1="0" y1="0" x2="1" y2="1"><stop offset="0" stop-color="#020617"/><stop offset="1" stop-color="#06111f"/></linearGradient>
    <radialGradient id="glow" cx="18%" cy="50%" r="48%"><stop offset="0" stop-color="#38bdf8" stop-opacity=".32"/><stop offset="1" stop-color="#020617" stop-opacity="0"/></radialGradient>
  </defs>
  <rect width="1400" height="420" fill="url(#bg)"/>
  <rect width="1400" height="420" fill="url(#glow)"/>
  <text x="84" y="126" font-family="Space Grotesk, Inter, Arial, sans-serif" font-size="72" font-weight="900" fill="#f8fafc">🔐 GIT LOCKERS</text>
  <text x="90" y="196" font-family="Inter, Arial, sans-serif" font-size="38" fill="#facc15">Unlock the next repository.</text>
  <text x="90" y="262" font-family="Inter, Arial, sans-serif" font-size="28" fill="#94a3b8">An interactive vault for repo ideas, prompt capsules, GitHub Actions, and agent-ready developer workflows.</text>
  <g transform="translate(930 60)">
    <rect x="0" y="0" width="92" height="78" rx="14" fill="#1e293b" stroke="#334155" stroke-opacity=".75" stroke-width="2"/><rect x="120" y="0" width="92" height="78" rx="14" fill="#1e293b" stroke="#334155" stroke-opacity=".75" stroke-width="2"/><rect x="240" y="0" width="92" height="78" rx="14" fill="#1e293b" stroke="#334155" stroke-opacity=".75" stroke-width="2"/><rect x="0" y="105" width="92" height="78" rx="14" fill="#1e293b" stroke="#334155" stroke-opacity=".75" stroke-width="2"/><rect x="120" y="105" width="92" height="78" rx="14" fill="#082f49" stroke="#38bdf8" stroke-opacity=".75" stroke-width="2"/><rect x="240" y="105" width="92" height="78" rx="14" fill="#1e293b" stroke="#334155" stroke-opacity=".75" stroke-width="2"/><rect x="0" y="210" width="92" height="78" rx="14" fill="#1e293b" stroke="#334155" stroke-opacity=".75" stroke-width="2"/><rect x="120" y="210" width="92" height="78" rx="14" fill="#1e293b" stroke="#334155" stroke-opacity=".75" stroke-width="2"/><rect x="240" y="210" width="92" height="78" rx="14" fill="#1e293b" stroke="#334155" stroke-opacity=".75" stroke-width="2"/>
    <path d="M152 210 L152 182 L182 196" fill="none" stroke="#38bdf8" stroke-width="4" stroke-linecap="round" stroke-linejoin="round"/>
    <circle cx="152" cy="210" r="6" fill="#22c55e"/>
    <circle cx="152" cy="182" r="6" fill="#38bdf8"/>
    <circle cx="182" cy="196" r="6" fill="#facc15"/>
  </g>
</svg>