<svg xmlns="http://www.w3.org/2000/svg" width="1280" height="640" viewBox="0 0 1280 640" role="img" aria-label="Git Lockers social preview">
  <defs>
    <linearGradient id="bg" x1="0" y1="0" x2="1" y2="1"><stop offset="0" stop-color="#020617"/><stop offset="1" stop-color="#071827"/></linearGradient>
    <radialGradient id="cyan" cx="28%" cy="42%" r="48%"><stop offset="0" stop-color="#38bdf8" stop-opacity=".28"/><stop offset="1" stop-color="#020617" stop-opacity="0"/></radialGradient>
    <radialGradient id="gold" cx="78%" cy="58%" r="40%"><stop offset="0" stop-color="#facc15" stop-opacity=".20"/><stop offset="1" stop-color="#020617" stop-opacity="0"/></radialGradient>
  </defs>
  <rect width="1280" height="640" fill="url(#bg)"/>
  <rect width="1280" height="640" fill="url(#cyan)"/>
  <rect width="1280" height="640" fill="url(#gold)"/>
  <g opacity=".25" stroke="#334155" stroke-width="1">
    <path d="M0 0V640"/><path d="M64 0V640"/><path d="M128 0V640"/><path d="M192 0V640"/><path d="M256 0V640"/><path d="M320 0V640"/><path d="M384 0V640"/><path d="M448 0V640"/><path d="M512 0V640"/><path d="M576 0V640"/><path d="M640 0V640"/><path d="M704 0V640"/><path d="M768 0V640"/><path d="M832 0V640"/><path d="M896 0V640"/><path d="M960 0V640"/><path d="M1024 0V640"/><path d="M1088 0V640"/><path d="M1152 0V640"/><path d="M1216 0V640"/><path d="M1280 0V640"/>
    <path d="M0 0H1280"/><path d="M0 64H1280"/><path d="M0 128H1280"/><path d="M0 192H1280"/><path d="M0 256H1280"/><path d="M0 320H1280"/><path d="M0 384H1280"/><path d="M0 448H1280"/><path d="M0 512H1280"/><path d="M0 576H1280"/><path d="M0 640H1280"/>
  </g>
  <rect x="70" y="84" width="400" height="472" rx="44" fill="#0f172a" opacity=".92" stroke="#38bdf8" stroke-opacity=".65" stroke-width="3"/>
  <g transform="translate(150 155) scale(1.05)">
    <rect x="0" y="0" width="70" height="92" rx="12" fill="#1e293b" stroke="#38bdf8" stroke-opacity=".55" stroke-width="2"/><rect x="80" y="0" width="70" height="92" rx="12" fill="#1e293b" stroke="#38bdf8" stroke-opacity=".55" stroke-width="2"/><rect x="160" y="0" width="70" height="92" rx="12" fill="#1e293b" stroke="#38bdf8" stroke-opacity=".55" stroke-width="2"/><rect x="0" y="102" width="70" height="92" rx="12" fill="#1e293b" stroke="#38bdf8" stroke-opacity=".55" stroke-width="2"/><rect x="80" y="102" width="70" height="92" rx="12" fill="#082f49" stroke="#38bdf8" stroke-opacity=".55" stroke-width="2"/><rect x="160" y="102" width="70" height="92" rx="12" fill="#1e293b" stroke="#38bdf8" stroke-opacity=".55" stroke-width="2"/><rect x="0" y="204" width="70" height="92" rx="12" fill="#1e293b" stroke="#38bdf8" stroke-opacity=".55" stroke-width="2"/><rect x="80" y="204" width="70" height="92" rx="12" fill="#1e293b" stroke="#38bdf8" stroke-opacity=".55" stroke-width="2"/><rect x="160" y="204" width="70" height="92" rx="12" fill="#1e293b" stroke="#38bdf8" stroke-opacity=".55" stroke-width="2"/>
    <path d="M114 224 L114 188 L150 204" fill="none" stroke="#38bdf8" stroke-width="5" stroke-linecap="round" stroke-linejoin="round"/>
    <circle cx="114" cy="224" r="8" fill="#22c55e" stroke="#f8fafc" stroke-width="2"/>
    <circle cx="114" cy="188" r="8" fill="#38bdf8" stroke="#f8fafc" stroke-width="2"/>
    <circle cx="150" cy="204" r="8" fill="#facc15" stroke="#f8fafc" stroke-width="2"/>
    <circle cx="260" cy="40" r="22" fill="none" stroke="#facc15" stroke-width="6"/>
    <path d="M260 40 L325 105 M313 93 L294 116 M323 103 L303 128" stroke="#facc15" stroke-width="6" stroke-linecap="round"/>
  </g>
  <text x="540" y="136" font-family="Inter, Arial, sans-serif" font-size="26" font-weight="900" fill="#38bdf8" letter-spacing="3">INTERACTIVE DEVELOPER VAULT</text>
  <text x="540" y="252" font-family="Space Grotesk, Inter, Arial, sans-serif" font-size="92" font-weight="900" fill="#f8fafc">GIT LOCKERS</text>
  <text x="544" y="316" font-family="Inter, Arial, sans-serif" font-size="36" fill="#facc15">Unlock the next repository.</text>
  <text x="544" y="374" font-family="Inter, Arial, sans-serif" font-size="28" fill="#94a3b8">Repo ideas • Prompt capsules • GitHub Actions • Agent workflows</text>
  <rect x="544" y="500" width="572" height="50" rx="18" fill="#020617" opacity=".78" stroke="#334155"/>
  <text x="566" y="532" font-family="JetBrains Mono, monospace" font-size="24" font-weight="700" fill="#22c55e">$ /inject git-locker.unlock --workflow</text>
</svg>