<svg xmlns="http://www.w3.org/2000/svg" width="1024" height="1024" viewBox="0 0 1024 1024" role="img" aria-label="Git Lockers logo">
  <defs>
    <radialGradient id="g1" cx="50%" cy="42%" r="55%">
      <stop offset="0%" stop-color="#38bdf8" stop-opacity=".38"/>
      <stop offset="60%" stop-color="#071827" stop-opacity=".75"/>
      <stop offset="100%" stop-color="#020617"/>
    </radialGradient>
    <filter id="glow"><feGaussianBlur stdDeviation="8" result="b"/><feMerge><feMergeNode in="b"/><feMergeNode in="SourceGraphic"/></feMerge></filter>
  </defs>
  <rect width="1024" height="1024" rx="96" fill="url(#g1)"/>
  <rect x="132" y="112" width="760" height="786" rx="80" fill="#0f172a" opacity=".92" stroke="#38bdf8" stroke-opacity=".65" stroke-width="4"/>
  <g transform="translate(286 205) scale(1.58)" filter="url(#glow)">
    <rect x="0" y="0" width="70" height="92" rx="12" fill="#1e293b" stroke="#38bdf8" stroke-opacity=".55" stroke-width="2"/><rect x="80" y="0" width="70" height="92" rx="12" fill="#1e293b" stroke="#38bdf8" stroke-opacity=".55" stroke-width="2"/><rect x="160" y="0" width="70" height="92" rx="12" fill="#1e293b" stroke="#38bdf8" stroke-opacity=".55" stroke-width="2"/><rect x="0" y="102" width="70" height="92" rx="12" fill="#1e293b" stroke="#38bdf8" stroke-opacity=".55" stroke-width="2"/><rect x="80" y="102" width="70" height="92" rx="12" fill="#082f49" stroke="#38bdf8" stroke-opacity=".55" stroke-width="2"/><rect x="160" y="102" width="70" height="92" rx="12" fill="#1e293b" stroke="#38bdf8" stroke-opacity=".55" stroke-width="2"/><rect x="0" y="204" width="70" height="92" rx="12" fill="#1e293b" stroke="#38bdf8" stroke-opacity=".55" stroke-width="2"/><rect x="80" y="204" width="70" height="92" rx="12" fill="#1e293b" stroke="#38bdf8" stroke-opacity=".55" stroke-width="2"/><rect x="160" y="204" width="70" height="92" rx="12" fill="#1e293b" stroke="#38bdf8" stroke-opacity=".55" stroke-width="2"/>
    <path d="M114 224 L114 188 L150 204" fill="none" stroke="#38bdf8" stroke-width="5" stroke-linecap="round" stroke-linejoin="round"/>
    <circle cx="114" cy="224" r="8" fill="#22c55e" stroke="#f8fafc" stroke-width="2"/>
    <circle cx="114" cy="188" r="8" fill="#38bdf8" stroke="#f8fafc" stroke-width="2"/>
    <circle cx="150" cy="204" r="8" fill="#facc15" stroke="#f8fafc" stroke-width="2"/>
    <circle cx="260" cy="40" r="22" fill="none" stroke="#facc15" stroke-width="6"/>
    <path d="M260 40 L325 105 M313 93 L294 116 M323 103 L303 128" stroke="#facc15" stroke-width="6" stroke-linecap="round"/>
  </g>
  <text x="512" y="740" text-anchor="middle" font-family="Space Grotesk, Inter, Arial, sans-serif" font-size="84" font-weight="900" fill="#f8fafc">GIT LOCKERS</text>
  <text x="512" y="806" text-anchor="middle" font-family="Inter, Arial, sans-serif" font-size="28" letter-spacing="4" fill="#38bdf8">UNLOCK THE NEXT REPOSITORY</text>
</svg>